<svg xmlns="http://www.w3.org/2000/svg" viewBox="0 0 32 32" width="32" height="32">
  <rect width="32" height="32" fill="#051423" rx="6"/>
  <g transform="translate(6, 8)">
    <!-- Hotel building -->
    <rect x="2" y="6" width="16" height="10" fill="#ff6b35" rx="1"/>
    <rect x="4" y="8" width="2" height="2" fill="#ffffff"/>
    <rect x="7" y="8" width="2" height="2" fill="#ffffff"/>
    <rect x="10" y="8" width="2" height="2" fill="#ffffff"/>
    <rect x="13" y="8" width="2" height="2" fill="#ffffff"/>
    <rect x="4" y="11" width="2" height="2" fill="#ffffff"/>
    <rect x="7" y="11" width="2" height="2" fill="#ffffff"/>
    <rect x="10" y="11" width="2" height="2" fill="#ffffff"/>
    <rect x="13" y="11" width="2" height="2" fill="#ffffff"/>
    <rect x="8" y="13" width="2" height="3" fill="#ffffff"/>
    <!-- Star -->
    <polygon points="17,2 18,5 21,5 19,7 20,10 17,8 14,10 15,7 13,5 16,5" fill="#ffd700"/>
  </g>
</svg>